HIERARCHY
ROOT mixamorig1:Hips
{
	OFFSET 0.000000 100.052002 0.000000
	CHANNELS 6 Xposition Yposition Zposition Xrotation Yrotation Zrotation
	JOINT mixamorig1:Spine
	{
		OFFSET 0.000000 9.717300 -1.180200
		CHANNELS 6 Xposition Yposition Zposition Xrotation Yrotation Zrotation
		JOINT mixamorig1:Spine1
		{
			OFFSET 0.000000 11.336784 -1.376941
			CHANNELS 3 Xrotation Yrotation Zrotation
			JOINT mixamorig1:Spine2
			{
				OFFSET 0.000000 12.956383 -1.573654
				CHANNELS 3 Xrotation Yrotation Zrotation
				JOINT mixamorig1:Neck
				{
					OFFSET 0.000000 14.575882 -1.770355
					CHANNELS 6 Xposition Yposition Zposition Xrotation Yrotation Zrotation
					JOINT mixamorig1:Head
					{
						OFFSET 0.000000 6.720200 1.972200
						CHANNELS 6 Xposition Yposition Zposition Xrotation Yrotation Zrotation
						JOINT mixamorig1:HeadTop_End
						{
							OFFSET 0.000000 20.999802 6.162800
							CHANNELS 6 Xposition Yposition Zposition Xrotation Yrotation Zrotation
							End Site
							{
								OFFSET 0.000000 21.885422 0.000000
							}
						}
					}
				}
				JOINT mixamorig1:LeftShoulder
				{
					OFFSET 6.140200 12.877686 -1.799413
					CHANNELS 6 Xposition Yposition Zposition Xrotation Yrotation Zrotation
					JOINT mixamorig1:LeftArm
					{
						OFFSET 12.558889 -3.380020 -0.058110
						CHANNELS 3 Xrotation Yrotation Zrotation
						JOINT mixamorig1:LeftForeArm
						{
							OFFSET 25.560802 0.000000 0.000000
							CHANNELS 3 Xrotation Yrotation Zrotation
							JOINT mixamorig1:LeftHand
							{
								OFFSET 23.404095 0.000000 0.000000
								CHANNELS 3 Xrotation Yrotation Zrotation
								JOINT mixamorig1:LeftHandThumb1
								{
									OFFSET 4.128799 -1.207092 2.573364
									CHANNELS 6 Xposition Yposition Zposition Xrotation Yrotation Zrotation
									JOINT mixamorig1:LeftHandThumb2
									{
										OFFSET 3.106247 -1.793396 1.793392
										CHANNELS 6 Xposition Yposition Zposition Xrotation Yrotation Zrotation
										JOINT mixamorig1:LeftHandThumb3
										{
											OFFSET 2.788620 -1.610016 1.610011
											CHANNELS 6 Xposition Yposition Zposition Xrotation Yrotation Zrotation
											JOINT mixamorig1:LeftHandThumb4
											{
												OFFSET 2.332939 -1.346924 1.346924
												CHANNELS 6 Xposition Yposition Zposition Xrotation Yrotation Zrotation
												End Site
												{
													OFFSET 2.098068 -1.306122 1.721387
												}
											}
										}
									}
								}
								JOINT mixamorig1:LeftHandIndex1
								{
									OFFSET 11.999931 -0.333878 2.508170
									CHANNELS 6 Xposition Yposition Zposition Xrotation Yrotation Zrotation
									JOINT mixamorig1:LeftHandIndex2
									{
										OFFSET 3.298477 0.000000 0.000000
										CHANNELS 6 Xposition Yposition Zposition Xrotation Yrotation Zrotation
										JOINT mixamorig1:LeftHandIndex3
										{
											OFFSET 3.081009 0.000000 0.000000
											CHANNELS 6 Xposition Yposition Zposition Xrotation Yrotation Zrotation
											JOINT mixamorig1:LeftHandIndex4
											{
												OFFSET 2.712151 0.000000 0.000000
												CHANNELS 6 Xposition Yposition Zposition Xrotation Yrotation Zrotation
												End Site
												{
													OFFSET 2.712097 -0.000549 -0.016291
												}
											}
										}
									}
								}
								JOINT mixamorig1:LeftHandMiddle1
								{
									OFFSET 12.393951 0.000000 0.000000
									CHANNELS 6 Xposition Yposition Zposition Xrotation Yrotation Zrotation
									JOINT mixamorig1:LeftHandMiddle2
									{
										OFFSET 3.432213 0.000000 0.000000
										CHANNELS 6 Xposition Yposition Zposition Xrotation Yrotation Zrotation
										JOINT mixamorig1:LeftHandMiddle3
										{
											OFFSET 3.160919 0.000000 0.000000
											CHANNELS 6 Xposition Yposition Zposition Xrotation Yrotation Zrotation
											JOINT mixamorig1:LeftHandMiddle4
											{
												OFFSET 2.876404 0.000000 0.000000
												CHANNELS 3 Xrotation Yrotation Zrotation
												End Site
												{
													OFFSET 2.876404 0.000000 0.000000
												}
											}
										}
									}
								}
								JOINT mixamorig1:LeftHandRing1
								{
									OFFSET 12.360489 -0.116104 -2.298636
									CHANNELS 6 Xposition Yposition Zposition Xrotation Yrotation Zrotation
									JOINT mixamorig1:LeftHandRing2
									{
										OFFSET 2.726105 0.000000 0.000000
										CHANNELS 6 Xposition Yposition Zposition Xrotation Yrotation Zrotation
										JOINT mixamorig1:LeftHandRing3
										{
											OFFSET 2.620300 0.000000 0.000000
											CHANNELS 6 Xposition Yposition Zposition Xrotation Yrotation Zrotation
											JOINT mixamorig1:LeftHandRing4
											{
												OFFSET 2.226906 0.000000 0.000000
												CHANNELS 6 Xposition Yposition Zposition Xrotation Yrotation Zrotation
												End Site
												{
													OFFSET 2.226898 0.000153 0.003196
												}
											}
										}
									}
								}
								JOINT mixamorig1:LeftHandPinky1
								{
									OFFSET 10.793266 -0.303589 -4.149957
									CHANNELS 6 Xposition Yposition Zposition Xrotation Yrotation Zrotation
									JOINT mixamorig1:LeftHandPinky2
									{
										OFFSET 2.734612 0.000000 0.000000
										CHANNELS 6 Xposition Yposition Zposition Xrotation Yrotation Zrotation
										JOINT mixamorig1:LeftHandPinky3
										{
											OFFSET 2.194000 0.000000 0.000000
											CHANNELS 6 Xposition Yposition Zposition Xrotation Yrotation Zrotation
											JOINT mixamorig1:LeftHandPinky4
											{
												OFFSET 1.975510 0.000000 0.000000
												CHANNELS 6 Xposition Yposition Zposition Xrotation Yrotation Zrotation
												End Site
												{
													OFFSET 1.975502 -0.000275 -0.005493
												}
											}
										}
									}
								}
							}
						}
					}
				}
				JOINT mixamorig1:RightShoulder
				{
					OFFSET -6.140200 12.877701 -1.741290
					CHANNELS 6 Xposition Yposition Zposition Xrotation Yrotation Zrotation
					JOINT mixamorig1:RightArm
					{
						OFFSET -12.558887 -3.380020 0.058096
						CHANNELS 3 Xrotation Yrotation Zrotation
						JOINT mixamorig1:RightForeArm
						{
							OFFSET -25.571100 0.000000 -0.000001
							CHANNELS 3 Xrotation Yrotation Zrotation
							JOINT mixamorig1:RightHand
							{
								OFFSET -23.401703 0.000000 -0.000001
								CHANNELS 3 Xrotation Yrotation Zrotation
								JOINT mixamorig1:RightHandThumb1
								{
									OFFSET -4.237885 -1.241806 2.593891
									CHANNELS 6 Xposition Yposition Zposition Xrotation Yrotation Zrotation
									JOINT mixamorig1:RightHandThumb2
									{
										OFFSET -3.173721 -1.832352 1.832350
										CHANNELS 6 Xposition Yposition Zposition Xrotation Yrotation Zrotation
										JOINT mixamorig1:RightHandThumb3
										{
											OFFSET -2.734779 -1.578934 1.578928
											CHANNELS 6 Xposition Yposition Zposition Xrotation Yrotation Zrotation
											JOINT mixamorig1:RightHandThumb4
											{
												OFFSET -2.254745 -1.301773 1.301779
												CHANNELS 6 Xposition Yposition Zposition Xrotation Yrotation Zrotation
												End Site
												{
													OFFSET -2.004616 -1.260025 1.693210
												}
											}
										}
									}
								}
								JOINT mixamorig1:RightHandIndex1
								{
									OFFSET -12.582405 -0.171967 2.675169
									CHANNELS 6 Xposition Yposition Zposition Xrotation Yrotation Zrotation
									JOINT mixamorig1:RightHandIndex2
									{
										OFFSET -3.117424 0.000000 0.000000
										CHANNELS 6 Xposition Yposition Zposition Xrotation Yrotation Zrotation
										JOINT mixamorig1:RightHandIndex3
										{
											OFFSET -2.856110 0.000000 0.000000
											CHANNELS 6 Xposition Yposition Zposition Xrotation Yrotation Zrotation
											JOINT mixamorig1:RightHandIndex4
											{
												OFFSET -2.534607 0.000000 0.000000
												CHANNELS 6 Xposition Yposition Zposition Xrotation Yrotation Zrotation
												End Site
												{
													OFFSET -2.534599 -0.000092 -0.005299
												}
											}
										}
									}
								}
								JOINT mixamorig1:RightHandMiddle1
								{
									OFFSET -12.213303 0.000000 -0.000000
									CHANNELS 6 Xposition Yposition Zposition Xrotation Yrotation Zrotation
									JOINT mixamorig1:RightHandMiddle2
									{
										OFFSET -3.479240 0.000000 0.000000
										CHANNELS 6 Xposition Yposition Zposition Xrotation Yrotation Zrotation
										JOINT mixamorig1:RightHandMiddle3
										{
											OFFSET -3.226028 0.000000 0.000000
											CHANNELS 6 Xposition Yposition Zposition Xrotation Yrotation Zrotation
											JOINT mixamorig1:RightHandMiddle4
											{
												OFFSET -2.928001 0.000000 0.000000
												CHANNELS 6 Xposition Yposition Zposition Xrotation Yrotation Zrotation
												End Site
												{
													OFFSET -2.927994 -0.000046 -0.002500
												}
											}
										}
									}
								}
								JOINT mixamorig1:RightHandRing1
								{
									OFFSET -12.155838 -0.109528 -2.139221
									CHANNELS 6 Xposition Yposition Zposition Xrotation Yrotation Zrotation
									JOINT mixamorig1:RightHandRing2
									{
										OFFSET -2.821602 0.000000 0.000000
										CHANNELS 6 Xposition Yposition Zposition Xrotation Yrotation Zrotation
										JOINT mixamorig1:RightHandRing3
										{
											OFFSET -2.687714 0.000000 0.000000
											CHANNELS 6 Xposition Yposition Zposition Xrotation Yrotation Zrotation
											JOINT mixamorig1:RightHandRing4
											{
												OFFSET -2.368401 0.000000 0.000000
												CHANNELS 6 Xposition Yposition Zposition Xrotation Yrotation Zrotation
												End Site
												{
													OFFSET -2.368408 0.000122 0.004098
												}
											}
										}
									}
								}
								JOINT mixamorig1:RightHandPinky1
								{
									OFFSET -10.912514 -0.136993 -4.154601
									CHANNELS 6 Xposition Yposition Zposition Xrotation Yrotation Zrotation
									JOINT mixamorig1:RightHandPinky2
									{
										OFFSET -2.640511 0.000000 0.000000
										CHANNELS 6 Xposition Yposition Zposition Xrotation Yrotation Zrotation
										JOINT mixamorig1:RightHandPinky3
										{
											OFFSET -2.149010 0.000000 0.000000
											CHANNELS 6 Xposition Yposition Zposition Xrotation Yrotation Zrotation
											JOINT mixamorig1:RightHandPinky4
											{
												OFFSET -1.888405 0.000000 0.000000
												CHANNELS 6 Xposition Yposition Zposition Xrotation Yrotation Zrotation
												End Site
												{
													OFFSET -1.888397 -0.000076 -0.002499
												}
											}
										}
									}
								}
							}
						}
					}
				}
			}
		}
	}
	JOINT mixamorig1:LeftUpLeg
	{
		OFFSET 8.078200 -5.402397 -0.535900
		CHANNELS 6 Xposition Yposition Zposition Xrotation Yrotation Zrotation
		JOINT mixamorig1:LeftLeg
		{
			OFFSET 0.166247 -42.704498 -2.695473
			CHANNELS 3 Xrotation Yrotation Zrotation
			JOINT mixamorig1:LeftFoot
			{
				OFFSET -0.166255 -42.074757 -2.882279
				CHANNELS 3 Xrotation Yrotation Zrotation
				JOINT mixamorig1:LeftToeBase
				{
					OFFSET 1.133370 -9.116460 13.321884
					CHANNELS 3 Xrotation Yrotation Zrotation
					JOINT mixamorig1:LeftToe_End
					{
						OFFSET 0.591577 -0.054453 6.177401
						CHANNELS 3 Xrotation Yrotation Zrotation
						End Site
						{
							OFFSET 0.591577 -0.054453 6.177402
						}
					}
				}
			}
		}
	}
	JOINT mixamorig1:RightUpLeg
	{
		OFFSET -8.078200 -5.402397 -0.751800
		CHANNELS 6 Xposition Yposition Zposition Xrotation Yrotation Zrotation
		JOINT mixamorig1:RightLeg
		{
			OFFSET -0.166221 -42.704521 -2.464558
			CHANNELS 3 Xrotation Yrotation Zrotation
			JOINT mixamorig1:RightFoot
			{
				OFFSET 0.166220 -42.074753 -2.968993
				CHANNELS 3 Xrotation Yrotation Zrotation
				JOINT mixamorig1:RightToeBase
				{
					OFFSET -1.133402 -9.116828 13.416508
					CHANNELS 3 Xrotation Yrotation Zrotation
					JOINT mixamorig1:RightToe_End
					{
						OFFSET -0.591581 -0.054615 6.151378
						CHANNELS 3 Xrotation Yrotation Zrotation
						End Site
						{
							OFFSET -0.591581 -0.054615 6.151378
						}
					}
				}
			}
		}
	}
}
MOTION
Frames: 4
Frame Time: 0.016667
3.881357 90.906303 397.771271 5.449483 -5.265253 -0.096242 0.000002 9.717298 -1.180264 2.615546 0.724594 -0.541739 5.233416 1.363792 -0.965919 5.233414 1.363793 -0.965918 0.000001 14.575891 -1.770371 -0.623942 -0.352121 0.228401 0.000000 6.720157 1.972188 -0.623920 -0.352121 0.228400 -0.000000 20.999832 6.162790 -0.000001 0.000000 -0.000000 6.140205 12.877705 -1.799439 -4.850073 -15.730969 -16.390040 12.787397 -18.256040 -56.691304 36.127391 -82.004535 44.976290 -0.114495 3.168266 7.647080 4.128852 -1.207089 2.573369 5.010111 -0.240065 16.811947 3.106302 -1.793424 1.793415 17.679349 33.452235 -5.932296 2.788629 -1.609994 1.610003 -5.671336 -19.538355 -1.310222 2.332921 -1.346914 1.346908 0.000001 -0.000005 -0.000002 11.999922 -0.333895 2.508164 7.383269 3.842182 -80.312288 3.298456 0.000017 0.000021 6.162307 5.924941 -100.365586 3.080987 -0.000048 -0.000021 2.813272 4.650164 -65.058337 2.712151 0.000030 0.000001 0.000000 0.000001 -0.000000 12.393964 0.000009 0.000010 1.974710 10.532131 -72.573123 3.432195 0.000033 -0.000010 5.027503 6.092350 -89.435248 3.160905 0.000033 0.000010 2.815961 6.099532 -65.141645 -0.000000 0.000002 -0.000001 12.360534 -0.116091 -2.298640 -0.709838 19.682165 -78.473068 2.726105 -0.000006 0.000030 6.002000 4.984197 -93.321735 2.620292 -0.000024 0.000010 3.586311 5.800912 -70.034342 2.226900 -0.000031 0.000006 -0.000001 0.000001 -0.000001 10.793301 -0.303567 -4.149960 -5.530472 25.590180 -84.575890 2.734580 0.000027 0.000000 3.167998 5.062319 -72.779668 2.194008 -0.000015 -0.000061 6.476662 3.327880 -88.924357 1.975518 -0.000016 0.000046 0.000002 0.000003 -0.000000 -6.140203 12.877727 -1.741313 -3.137702 8.826163 19.355646 21.568412 5.214861 66.725382 105.186088 53.149947 -116.237566 -7.532293 7.804266 -10.495350 -4.237895 -1.241796 2.593887 5.007318 0.239301 -16.816735 -3.173716 -1.832328 1.832340 18.873872 -32.292038 6.203852 -2.734767 -1.578903 1.578922 -5.790467 20.592595 0.100882 -2.254792 -1.301762 1.301783 -0.000004 -0.000001 0.000000 -12.582398 -0.171941 2.675164 3.372064 1.979453 82.236447 -3.117408 0.000017 -0.000007 5.563877 -5.999422 93.709478 -2.856126 0.000008 -0.000004 1.660498 -4.095177 62.047125 -2.534576 -0.000003 -0.000012 -0.000000 -0.000000 -0.000000 -12.213342 0.000001 -0.000003 1.690061 -10.722272 73.655954 -3.479260 -0.000052 -0.000010 4.852237 -6.084981 87.474451 -3.226047 -0.000021 -0.000005 -2.025677 -4.297322 66.595260 -2.927993 0.000059 -0.000007 -0.000000 -0.000000 0.000003 -12.155849 -0.109511 -2.139225 -0.101184 -19.986392 79.966632 -2.821621 -0.000028 -0.000029 5.870180 -5.010655 91.797838 -2.687761 -0.000022 0.000023 -2.837017 -3.601200 68.506538 -2.368382 0.000049 0.000017 0.000001 0.000000 0.000001 -10.912503 -0.136978 -4.154604 -5.493148 -26.635361 88.093915 -2.640510 -0.000003 -0.000022 3.313196 -5.122519 74.672143 -2.149001 0.000002 0.000006 0.228821 -3.341039 82.519354 -1.888409 0.000013 0.000016 -0.000001 0.000003 -0.000002 8.078207 -5.402390 -0.535944 -19.966350 0.621026 -4.058903 47.230140 4.167933 -1.870536 -33.099998 -1.548120 4.452025 0.749204 -0.367344 -0.052872 -0.000000 -0.000000 0.000000 -8.078195 -5.402379 -0.751839 -24.293234 -2.403217 -4.534902 84.704318 -13.840161 -5.694140 11.839252 -0.518250 -6.065173 -7.918461 3.165551 -1.927119 0.000001 -0.000002 0.000000 
3.672724 92.062469 401.036957 5.369052 -5.464720 -0.702497 -0.000004 9.717302 -1.180190 2.535571 0.448203 -0.403169 5.067301 0.809546 -0.540865 5.067298 0.809549 -0.540865 -0.000001 14.575890 -1.770351 -0.294160 -0.114351 0.032853 -0.000003 6.720185 1.972178 -0.294161 -0.114349 0.032853 -0.000001 20.999817 6.162810 -0.000002 0.000000 0.000000 6.140197 12.877687 -1.799446 -4.748911 -16.293131 -15.731623 11.466257 -19.512973 -57.072682 43.246589 -82.860044 52.603112 0.506306 2.052325 4.840698 4.128799 -1.207104 2.573343 5.010115 -0.240066 16.811951 3.106211 -1.793433 1.793383 16.535574 34.153132 -5.302143 2.788555 -1.610031 1.609991 -5.676269 -19.523611 -1.489700 2.332955 -1.346870 1.346915 -0.000006 -0.000003 -0.000000 11.999907 -0.333895 2.508154 7.237245 3.703184 -81.200444 3.298494 -0.000011 -0.000050 6.116236 5.933130 -99.849852 3.081004 -0.000039 0.000009 2.771710 4.628535 -64.544004 2.712158 0.000001 0.000015 0.000000 0.000000 0.000000 12.393926 -0.000010 -0.000005 2.020511 10.566607 -73.193707 3.432210 0.000007 -0.000027 4.985720 6.090931 -88.970577 3.160869 0.000004 -0.000015 2.767696 6.080607 -64.677390 0.000001 0.000000 -0.000001 12.360475 -0.116114 -2.298645 -0.515995 19.764744 -79.234491 2.726093 -0.000044 0.000019 5.964665 4.990507 -92.906146 2.620308 -0.000022 -0.000005 3.540140 5.789246 -69.618295 2.226915 0.000016 0.000015 -0.000002 -0.000002 -0.000001 10.793238 -0.303580 -4.149971 -5.364386 25.675205 -85.148669 2.734582 0.000030 0.000007 3.141994 5.051289 -72.464229 2.193986 0.000021 0.000004 6.461055 3.335101 -88.609519 1.975502 -0.000015 0.000016 -0.000003 -0.000003 0.000000 -6.140205 12.877717 -1.741321 -2.784072 7.921081 18.140487 24.708587 6.025855 67.174781 105.691146 54.242323 -117.696358 -8.089334 5.592660 -11.418937 -4.237864 -1.241808 2.593899 5.007318 0.239303 -16.816737 -3.173775 -1.832358 1.832353 17.655655 -33.325026 5.789097 -2.734755 -1.578913 1.578928 -5.857328 20.473967 1.533360 -2.254754 -1.301757 1.301769 0.000001 -0.000003 0.000003 -12.582369 -0.171958 2.675176 2.936555 2.959363 81.138980 -3.117404 -0.000037 0.000006 5.488989 -6.003717 92.883073 -2.856180 0.000025 0.000011 1.602182 -4.043921 61.224682 -2.534578 -0.000013 -0.000005 0.000000 -0.000000 0.000001 -12.213308 -0.000009 0.000001 1.750945 -10.604173 72.323418 -3.479258 -0.000036 -0.000039 4.797936 -6.081188 86.869187 -3.226038 0.000012 0.000029 -2.069094 -4.221862 65.996409 -2.928000 0.000027 -0.000013 0.000002 -0.000001 -0.000001 -12.155809 -0.109537 -2.139215 -0.456284 -19.851554 78.537572 -2.821627 0.000035 0.000031 5.842492 -5.014958 91.451964 -2.687696 -0.000005 0.000004 -2.836999 -3.601168 68.506524 -2.368362 -0.000001 0.000004 0.000001 0.000001 0.000003 -10.912518 -0.136991 -4.154592 -5.878778 -25.938113 85.311214 -2.640508 0.000080 -0.000050 3.234647 -5.091472 73.731100 -2.149017 -0.000001 0.000040 0.183040 -3.259847 81.583516 -1.888397 -0.000001 -0.000027 -0.000000 -0.000001 0.000000 8.078200 -5.402389 -0.535901 -15.190274 0.764359 -3.717752 41.737852 3.955118 -1.125312 -31.416138 -1.651067 5.285874 -1.996178 -0.319296 -0.146255 -0.000000 -0.000000 0.000000 -8.078205 -5.402402 -0.751793 -26.384601 -2.987110 -2.994270 82.013169 -12.912370 -5.221179 9.905235 -0.563756 -7.221148 -7.808879 2.206493 -1.875708 0.000000 -0.000000 0.000000 
3.421261 93.414597 404.427734 5.109561 -5.789668 -1.428388 -0.000003 9.717294 -1.180232 2.502099 0.224339 -0.226098 4.997480 0.363367 -0.052978 4.997483 0.363364 -0.052979 -0.000004 14.575868 -1.770379 -0.029477 0.161534 -0.238801 -0.000004 6.720209 1.972185 -0.029453 0.161534 -0.238803 0.000001 20.999786 6.162830 -0.000001 -0.000000 -0.000000 6.140197 12.877681 -1.799442 -4.703714 -16.777456 -15.357327 10.066712 -20.403570 -57.661126 48.767855 -83.528241 58.543423 0.985991 -1.207511 1.548804 4.128784 -1.207037 2.573359 5.010113 -0.240072 16.811954 3.106251 -1.793405 1.793395 14.391719 35.447176 -4.118076 2.788612 -1.610015 1.610011 -5.683582 -19.501114 -1.762497 2.332973 -1.346903 1.346913 -0.000003 -0.000006 0.000002 11.999886 -0.333850 2.508161 6.980919 3.477700 -82.901653 3.298505 0.000027 -0.000017 6.037135 5.946163 -98.966695 3.081063 -0.000058 0.000009 2.700979 4.590629 -63.663380 2.712144 -0.000032 0.000021 -0.000000 -0.000001 -0.000000 12.393925 0.000053 -0.000008 2.135385 10.642833 -74.458194 3.432202 -0.000030 -0.000007 4.918968 6.087946 -88.227029 3.160979 -0.000009 -0.000016 2.690689 6.049454 -63.934477 0.000000 -0.000001 -0.000000 12.360458 -0.116065 -2.298655 -0.147445 19.910608 -80.729476 2.726052 -0.000021 0.000007 5.906761 4.999537 -92.263643 2.620266 -0.000044 -0.000018 3.469064 5.770690 -68.975246 2.226914 -0.000030 0.000010 -0.000000 0.000002 -0.000000 10.793231 -0.303556 -4.149970 -5.025935 25.845834 -86.273977 2.734576 -0.000007 -0.000008 3.094478 5.030679 -71.886546 2.193996 -0.000027 0.000003 6.432410 3.348039 -88.032901 1.975524 -0.000032 -0.000013 0.000001 0.000004 -0.000000 -6.140203 12.877711 -1.741294 -2.454200 7.266988 16.797851 27.271395 6.505470 67.710220 105.681687 54.882520 -118.347070 -8.675299 3.353535 -11.835675 -4.237898 -1.241812 2.593881 5.007310 0.239299 -16.816732 -3.173730 -1.832358 1.832356 16.371171 -34.415411 5.377511 -2.734787 -1.578913 1.578921 -5.918478 20.350497 2.965168 -2.254750 -1.301763 1.301813 -0.000000 0.000000 0.000002 -12.582393 -0.171950 2.675162 2.577357 3.909946 80.107478 -3.117414 0.000037 0.000009 5.418036 -6.006800 92.100832 -2.856116 0.000012 0.000012 1.547656 -3.994625 60.446320 -2.534617 0.000043 -0.000001 -0.000001 0.000000 -0.000002 -12.213293 -0.000005 -0.000014 1.838286 -10.492405 71.047573 -3.479280 0.000028 -0.000011 4.742241 -6.076722 86.247565 -3.226050 -0.000002 0.000016 -2.112811 -4.143869 65.381528 -2.928004 0.000043 -0.000018 -0.000001 0.000002 0.000001 -12.155867 -0.109526 -2.139227 -0.815243 -19.705133 77.078651 -2.821581 -0.000038 0.000003 5.818347 -5.018471 91.156968 -2.687658 -0.000012 0.000033 -2.837001 -3.601155 68.506538 -2.368387 0.000033 0.000000 0.000002 0.000003 0.000001 -10.912519 -0.136996 -4.154601 -6.274044 -25.247125 82.473168 -2.640492 -0.000013 -0.000020 3.172253 -5.065743 72.978679 -2.149005 0.000003 0.000007 0.147402 -3.194366 80.835241 -1.888432 -0.000003 0.000029 -0.000003 -0.000001 -0.000001 8.078201 -5.402393 -0.535910 -9.985080 1.174288 -2.970230 35.398302 3.140857 -0.540367 -28.120951 -1.525761 5.122264 -5.995428 -0.021895 -0.155657 0.000000 -0.000000 0.000000 -8.078202 -5.402402 -0.751792 -27.669496 -4.149711 -0.956967 77.831932 -12.091912 -5.660380 7.024524 -0.312625 -6.755979 -5.984240 1.067390 -1.798022 -0.000001 0.000000 0.000001 
3.140529 94.814011 407.880219 4.926798 -6.185681 -2.292104 -0.000008 9.717289 -1.180205 2.469599 0.041549 -0.012552 4.932091 0.006216 0.495938 4.932086 0.006219 0.495939 -0.000001 14.575904 -1.770346 0.154443 0.448905 -0.546341 -0.000002 6.720200 1.972145 0.154440 0.448910 -0.546343 0.000003 20.999786 6.162771 -0.000000 0.000000 0.000000 6.140198 12.877693 -1.799411 -4.701933 -17.164453 -15.204215 8.769666 -20.946689 -58.375421 57.324787 -83.919495 67.528530 1.012066 -5.473454 -1.745732 4.128780 -1.207058 2.573359 5.010114 -0.240067 16.811951 3.106246 -1.793427 1.793386 12.163758 36.736671 -2.836937 2.788648 -1.609986 1.610025 -5.690530 -19.480162 -2.018842 2.332962 -1.346876 1.346935 -0.000003 -0.000008 -0.000000 11.999888 -0.333872 2.508168 6.741181 3.289423 -84.610970 3.298496 -0.000002 0.000005 5.940112 5.960468 -97.886207 3.080994 0.000033 0.000004 2.615266 4.542820 -62.586178 2.712140 0.000001 -0.000007 0.000002 0.000000 0.000001 12.393907 0.000008 -0.000010 2.264439 10.724311 -75.718043 3.432236 0.000017 -0.000000 4.846820 6.083755 -87.423204 3.160919 -0.000039 -0.000004 2.607899 6.014648 -63.131438 0.000001 -0.000000 -0.000000 12.360453 -0.116090 -2.298638 0.214539 20.043347 -82.186874 2.725988 -0.000013 -0.000039 5.846864 5.008223 -91.599851 2.620234 -0.000007 0.000007 3.395855 5.750723 -68.310901 2.226929 0.000063 -0.000003 -0.000000 0.000001 -0.000000 10.793221 -0.303550 -4.149961 -4.682629 26.010984 -87.381725 2.734573 -0.000069 -0.000021 3.042242 5.007366 -71.248756 2.194014 0.000017 0.000005 6.400624 3.361977 -87.396170 1.975490 -0.000015 0.000006 0.000001 0.000002 -0.000001 -6.140205 12.877705 -1.741312 -2.163215 6.730846 15.500331 29.445355 6.722655 68.226411 105.773532 55.624521 -119.000460 -9.247840 0.964337 -11.624663 -4.237879 -1.241807 2.593885 5.007308 0.239303 -16.816735 -3.173700 -1.832313 1.832335 15.258566 -35.354295 5.008780 -2.734782 -1.578943 1.578921 -5.970784 20.245963 4.199065 -2.254723 -1.301741 1.301765 -0.000004 -0.000003 0.000003 -12.582360 -0.171944 2.675167 2.243599 4.811514 79.275724 -3.117406 -0.000014 0.000003 5.356354 -6.008665 91.421105 -2.856075 0.000030 0.000017 1.500844 -3.951201 59.770063 -2.534603 0.000014 -0.000005 0.000001 0.000001 -0.000005 -12.213305 -0.000008 0.000005 1.924226 -10.402540 69.984126 -3.479287 0.000024 0.000014 4.694864 -6.072454 85.718601 -3.226025 -0.000012 0.000023 -2.149391 -4.077182 64.858404 -2.928019 -0.000043 0.000007 -0.000002 -0.000000 -0.000002 -12.155794 -0.109518 -2.139240 -1.118577 -19.573198 75.833453 -2.821618 -0.000001 0.000002 5.799999 -5.021029 90.937603 -2.687716 0.000009 0.000049 -2.836985 -3.601133 68.506558 -2.368409 0.000015 -0.000002 -0.000002 0.000002 -0.000003 -10.912506 -0.136990 -4.154593 -6.585189 -24.660789 80.040412 -2.640516 -0.000011 -0.000044 3.126759 -5.046367 72.426991 -2.149002 0.000009 0.000028 0.121821 -3.146057 80.286681 -1.888401 0.000002 -0.000032 -0.000000 0.000005 -0.000002 8.078197 -5.402415 -0.535881 -4.988811 1.884111 -1.879680 28.812494 1.835434 -0.142809 -22.979511 -1.017370 4.059982 -10.879019 0.384114 0.021996 0.000001 -0.000001 0.000000 -8.078207 -5.402402 -0.751784 -28.473045 -5.481983 1.509748 72.662776 -11.187560 -6.533676 2.976121 -0.027134 -4.809955 -2.451025 -0.105094 -1.704491 0.000002 0.000003 -0.000000 
